{
    "asset" : {
        "generator" : "Khronos glTF Blender I/O v1.5.17",
        "version" : "2.0"
    },
    "scene" : 0,
    "scenes" : [
        {
            "name" : "Scene",
            "nodes" : [
                0,
                1,
                2
            ]
        }
    ],
    "nodes" : [
        {
            "name" : "Light",
            "rotation" : [
                0.16907575726509094,
                0.7558803558349609,
                -0.27217137813568115,
                0.570947527885437
            ],
            "translation" : [
                4.076245307922363,
                5.903861999511719,
                -1.0054539442062378
            ]
        },
        {
            "name" : "Camera",
            "rotation" : [
                0.483536034822464,
                0.33687159419059753,
                -0.20870360732078552,
                0.7804827094078064
            ],
            "translation" : [
                7.358891487121582,
                4.958309173583984,
                6.925790786743164
            ]
        },
        {
            "mesh" : 0,
            "name" : "Bench 2",
            "rotation" : [
                0.7071068286895752,
                0,
                0,
                0.7071067094802856
            ]
        }
    ],
    "materials" : [
        {
            "doubleSided" : true,
            "name" : "st_textile",
            "pbrMetallicRoughness" : {
                "baseColorTexture" : {
                    "index" : 0
                },
                "metallicFactor" : 0,
                "roughnessFactor" : 0.8945907354354858
            }
        },
        {
            "doubleSided" : true,
            "name" : "black_st",
            "pbrMetallicRoughness" : {
                "baseColorTexture" : {
                    "index" : 1
                },
                "metallicFactor" : 0,
                "roughnessFactor" : 0.7211133241653442
            }
        },
        {
            "doubleSided" : true,
            "name" : "fabric",
            "pbrMetallicRoughness" : {
                "baseColorTexture" : {
                    "index" : 2
                },
                "metallicFactor" : 0,
                "roughnessFactor" : 0.8945907354354858
            }
        }
    ],
    "meshes" : [
        {
            "name" : "Bench 2",
            "primitives" : [
                {
                    "attributes" : {
                        "POSITION" : 0,
                        "NORMAL" : 1,
                        "TEXCOORD_0" : 2
                    },
                    "indices" : 3,
                    "material" : 0
                },
                {
                    "attributes" : {
                        "POSITION" : 4,
                        "NORMAL" : 5,
                        "TEXCOORD_0" : 6
                    },
                    "indices" : 7,
                    "material" : 1
                },
                {
                    "attributes" : {
                        "POSITION" : 8,
                        "NORMAL" : 9,
                        "TEXCOORD_0" : 10
                    },
                    "indices" : 11,
                    "material" : 2
                }
            ]
        }
    ],
    "textures" : [
        {
            "sampler" : 0,
            "source" : 0
        },
        {
            "sampler" : 0,
            "source" : 1
        },
        {
            "sampler" : 0,
            "source" : 2
        }
    ],
    "images" : [
        {
            "bufferView" : 4,
            "mimeType" : "image/jpeg",
            "name" : "Tkan_pSV"
        },
        {
            "bufferView" : 9,
            "mimeType" : "image/jpeg",
            "name" : "metalbla"
        },
        {
            "bufferView" : 14,
            "mimeType" : "image/jpeg",
            "name" : "Tkan_pil"
        }
    ],
    "accessors" : [
        {
            "bufferView" : 0,
            "componentType" : 5126,
            "count" : 593,
            "max" : [
                33.912235260009766,
                9.457244873046875,
                -12.993132591247559
            ],
            "min" : [
                -31.539302825927734,
                -11.407188415527344,
                -16.267744064331055
            ],
            "type" : "VEC3"
        },
        {
            "bufferView" : 1,
            "componentType" : 5126,
            "count" : 593,
            "type" : "VEC3"
        },
        {
            "bufferView" : 2,
            "componentType" : 5126,
            "count" : 593,
            "type" : "VEC2"
        },
        {
            "bufferView" : 3,
            "componentType" : 5123,
            "count" : 2568,
            "type" : "SCALAR"
        },
        {
            "bufferView" : 5,
            "componentType" : 5126,
            "count" : 3216,
            "max" : [
                34.6954460144043,
                9.521171569824219,
                0.9707669019699097
            ],
            "min" : [
                -32.23661804199219,
                -11.33334732055664,
                -13.627245903015137
            ],
            "type" : "VEC3"
        },
        {
            "bufferView" : 6,
            "componentType" : 5126,
            "count" : 3216,
            "type" : "VEC3"
        },
        {
            "bufferView" : 7,
            "componentType" : 5126,
            "count" : 3216,
            "type" : "VEC2"
        },
        {
            "bufferView" : 8,
            "componentType" : 5123,
            "count" : 11904,
            "type" : "SCALAR"
        },
        {
            "bufferView" : 10,
            "componentType" : 5126,
            "count" : 296,
            "max" : [
                12.098058700561523,
                9.423210144042969,
                -12.993135452270508
            ],
            "min" : [
                -9.808225631713867,
                -11.373023986816406,
                -16.26774024963379
            ],
            "type" : "VEC3"
        },
        {
            "bufferView" : 11,
            "componentType" : 5126,
            "count" : 296,
            "type" : "VEC3"
        },
        {
            "bufferView" : 12,
            "componentType" : 5126,
            "count" : 296,
            "type" : "VEC2"
        },
        {
            "bufferView" : 13,
            "componentType" : 5123,
            "count" : 1284,
            "type" : "SCALAR"
        }
    ],
    "bufferViews" : [
        {
            "buffer" : 0,
            "byteLength" : 7116,
            "byteOffset" : 0
        },
        {
            "buffer" : 0,
            "byteLength" : 7116,
            "byteOffset" : 7116
        },
        {
            "buffer" : 0,
            "byteLength" : 4744,
            "byteOffset" : 14232
        },
        {
            "buffer" : 0,
            "byteLength" : 5136,
            "byteOffset" : 18976
        },
        {
            "buffer" : 0,
            "byteLength" : 468402,
            "byteOffset" : 24112
        },
        {
            "buffer" : 0,
            "byteLength" : 38592,
            "byteOffset" : 492516
        },
        {
            "buffer" : 0,
            "byteLength" : 38592,
            "byteOffset" : 531108
        },
        {
            "buffer" : 0,
            "byteLength" : 25728,
            "byteOffset" : 569700
        },
        {
            "buffer" : 0,
            "byteLength" : 23808,
            "byteOffset" : 595428
        },
        {
            "buffer" : 0,
            "byteLength" : 206265,
            "byteOffset" : 619236
        },
        {
            "buffer" : 0,
            "byteLength" : 3552,
            "byteOffset" : 825504
        },
        {
            "buffer" : 0,
            "byteLength" : 3552,
            "byteOffset" : 829056
        },
        {
            "buffer" : 0,
            "byteLength" : 2368,
            "byteOffset" : 832608
        },
        {
            "buffer" : 0,
            "byteLength" : 2568,
            "byteOffset" : 834976
        },
        {
            "buffer" : 0,
            "byteLength" : 618279,
            "byteOffset" : 837544
        }
    ],
    "samplers" : [
        {
            "magFilter" : 9729,
            "minFilter" : 9987
        }
    ],
    "buffers" : [
        {
            "byteLength" : 1455824,
            "uri" : "data:application/octet-stream;base64,"
        }
    ]
}
