{
    "asset" : {
        "generator" : "Khronos glTF Blender I/O v1.5.17",
        "version" : "2.0"
    },
    "scene" : 0,
    "scenes" : [
        {
            "name" : "Scene",
            "nodes" : [
                0,
                1,
                2
            ]
        }
    ],
    "nodes" : [
        {
            "name" : "Light",
            "rotation" : [
                0.16907575726509094,
                0.7558803558349609,
                -0.27217137813568115,
                0.570947527885437
            ],
            "translation" : [
                4.076245307922363,
                5.903861999511719,
                -1.0054539442062378
            ]
        },
        {
            "name" : "Camera",
            "rotation" : [
                0.483536034822464,
                0.33687159419059753,
                -0.20870360732078552,
                0.7804827094078064
            ],
            "translation" : [
                7.358891487121582,
                4.958309173583984,
                6.925790786743164
            ]
        },
        {
            "mesh" : 0,
            "name" : "13466_Canaan_Dog_v1_L3",
            "rotation" : [
                -0.0008183121681213379,
                0,
                0,
                1
            ],
            "scale" : [
                0.5652512311935425,
                0.48076626658439636,
                0.48076626658439636
            ]
        }
    ],
    "materials" : [
        {
            "doubleSided" : true,
            "name" : "Canaan_Dog",
            "pbrMetallicRoughness" : {
                "baseColorTexture" : {
                    "index" : 0
                },
                "metallicFactor" : 0,
                "roughnessFactor" : 0.8945907354354858
            }
        }
    ],
    "meshes" : [
        {
            "name" : "13466_Canaan_Dog_v1_L3",
            "primitives" : [
                {
                    "attributes" : {
                        "POSITION" : 0,
                        "NORMAL" : 1,
                        "TEXCOORD_0" : 2
                    },
                    "indices" : 3,
                    "material" : 0
                }
            ]
        }
    ],
    "textures" : [
        {
            "sampler" : 0,
            "source" : 0
        }
    ],
    "images" : [
        {
            "bufferView" : 4,
            "mimeType" : "image/jpeg",
            "name" : "13466_Canaan_Dog_diff"
        }
    ],
    "accessors" : [
        {
            "bufferView" : 0,
            "componentType" : 5126,
            "count" : 39445,
            "max" : [
                5.756100177764893,
                34.55540084838867,
                19.46980094909668
            ],
            "min" : [
                -5.756100177764893,
                -0.3637999892234802,
                -24.277700424194336
            ],
            "type" : "VEC3"
        },
        {
            "bufferView" : 1,
            "componentType" : 5126,
            "count" : 39445,
            "type" : "VEC3"
        },
        {
            "bufferView" : 2,
            "componentType" : 5126,
            "count" : 39445,
            "type" : "VEC2"
        },
        {
            "bufferView" : 3,
            "componentType" : 5123,
            "count" : 226368,
            "type" : "SCALAR"
        }
    ],
    "bufferViews" : [
        {
            "buffer" : 0,
            "byteLength" : 473340,
            "byteOffset" : 0
        },
        {
            "buffer" : 0,
            "byteLength" : 473340,
            "byteOffset" : 473340
        },
        {
            "buffer" : 0,
            "byteLength" : 315560,
            "byteOffset" : 946680
        },
        {
            "buffer" : 0,
            "byteLength" : 452736,
            "byteOffset" : 1262240
        },
        {
            "buffer" : 0,
            "byteLength" : 541964,
            "byteOffset" : 1714976
        }
    ],
    "samplers" : [
        {
            "magFilter" : 9729,
            "minFilter" : 9987
        }
    ],
    "buffers" : [
        {
            "byteLength" : 2256940,
            "uri" : "data:application/octet-stream;base64,"
        }
    ]
}
